<?xml version="1.0" encoding="UTF-8" standalone="no"?>

<svg xmlns="http://www.w3.org/2000/svg" width="800" height="600">
  
<g transform="rotate(30,400,210)">
    <rect  x="400" y="200" width="200" height="20" style="fill:rgb(0,0,0);stroke-width:3;stroke:rgb(0,0,0)" />  
    <rect  x="400" y="180" width="200" height="0.8" style="fill:rgb(0,0,0);" /> 
    <rect  x="630" y="200" width="0.8" height="20" style="fill:rgb(0,0,0);" />  
    <text x="500" y="175" fill="black">l</text>
    <text x="640" y="210" fill="black">s</text>
</g>

<g transform="rotate(-30,400,210)">
  <rect  x="200" y="200" width="200" height="20" style="fill:rgb(0,0,0);stroke-width:3;stroke:rgb(0,0,0)" />  
</g>

<g transform="rotate(-30,400,410)">  
  <rect  x="400" y="400" width="200" height="20" style="fill:rgb(0,0,0);stroke-width:3;stroke:rgb(0,0,0)" />  
  <circle cx="600" cy="410" r="10" stroke="black" stroke-width="1" fill="lightgrey" /> 
</g>

<g transform="rotate(30,400,410)"> 
  <rect  x="200" y="400" width="200" height="20" style="fill:rgb(0,0,0);stroke-width:3;stroke:rgb(0,0,0)" />  
  <circle cx="200" cy="410" r="10" stroke="black" stroke-width="1" fill="lightgrey" /> 
</g>

<circle cx="400" cy="410" r="10" stroke="black" stroke-width="1" fill="lightgrey" /> 
<circle cx="400" cy="210" r="11" stroke="black" stroke-width="1" fill="lightgrey" /> 
  

<rect  x="210" y="210" width="0.8" height="200" style="fill:rgb(0,0,0);" />
<text x="195" y="310" fill="black">h</text>


<rect  x="390" y="430" width="20" height="0.8" style="fill:rgb(0,0,0);" />
<text  x="397" y="444" fill="black">d</text>

<!--    
<rect  x="0" y="0" width="800" height="0.8" style="fill:rgb(0,0,0);" />  
<rect  x="0" y="0" width="0.8" height="600" style="fill:rgb(0,0,0);" />  

<rect  x="0" y="595" width="800" height="0.8" style="fill:rgb(0,0,0);" />  
<rect  x="795" y="0" width="0.8" height="600" style="fill:rgb(0,0,0);" />
-->
  
</svg>



