<?xml version="1.0" encoding="UTF-8" standalone="no"?>
<svg xmlns="http://www.w3.org/2000/svg" width="800" height="600">
	<rect  x = "-171.500000" y="-7.166667" width="343.000000" height="14.333333" style="fill:rgb(210,210,210);stroke-width:1;stroke:rgb(0,0,0)" transform="matrix(1.000000 0.000000 -0.000000 1.000000 421.500000 550.000000)"  /> 
	<rect  x = "-193.000000" y="-21.500000" width="43.000000" height="43.000000" style="fill:rgb(130,130,130);stroke-width:3;stroke:rgb(0,0,0)" transform="matrix(1.000000 0.000000 -0.000000 1.000000 421.500000 550.000000)"  /> 
	<rect  x = "150.000000" y="-21.500000" width="43.000000" height="43.000000" style="fill:rgb(130,130,130);stroke-width:3;stroke:rgb(0,0,0)" transform="matrix(1.000000 0.000000 -0.000000 1.000000 421.500000 550.000000)"  /> 
	<rect  x = "97.000000" y="-21.500000" width="43.000000" height="43.000000" style="fill:rgb(130,130,130);stroke-width:3;stroke:rgb(0,0,0)" transform="matrix(1.000000 0.000000 -0.000000 1.000000 421.500000 550.000000)"  /> 


<g transform="rotate(14.835112, 395.000000, 204.348439)">
</g>

<g transform="rotate(-14.835112, 395.000000, 204.348439)">
</g>

<g transform="rotate(-14.835112, 395.000000, 281.159897)">
	<rect  x="395.000000" y="269.659897" width="150.000000" height="23.000000" style="fill:rgb(0,0,0);stroke-width:3;stroke:rgb(0,0,0)" />
	<circle cx="545.000000" cy="281.159897" r="11.000000" stroke="black" stroke-width="1" fill="lightgrey" />
</g>

<g transform="rotate(14.835112, 395.000000, 281.159897)">
	<rect  x="245.000000" y="269.659897" width="150.000000" height="23.000000" style="fill:rgb(0,0,0);stroke-width:3;stroke:rgb(0,0,0)" />
	<circle cx="245.000000" cy="281.159897" r="11.000000" stroke="black" stroke-width="1" fill="lightgrey" />
</g>

<circle cx="395.000000" cy="281.159897" r="11.000000" stroke="black" stroke-width="1" fill="lightgrey" />


<g transform="rotate(14.835112, 395.000000, 281.159897)">
	<rect  x="395.000000" y="269.659897" width="150.000000" height="23.000000" style="fill:rgb(0,0,0);stroke-width:3;stroke:rgb(0,0,0)" />
</g>

<g transform="rotate(-14.835112, 395.000000, 281.159897)">
	<rect  x="245.000000" y="269.659897" width="150.000000" height="23.000000" style="fill:rgb(0,0,0);stroke-width:3;stroke:rgb(0,0,0)" />
</g>

<g transform="rotate(-14.835112, 395.000000, 357.971355)">
	<rect  x="395.000000" y="346.471355" width="150.000000" height="23.000000" style="fill:rgb(0,0,0);stroke-width:3;stroke:rgb(0,0,0)" />
	<circle cx="545.000000" cy="357.971355" r="11.000000" stroke="black" stroke-width="1" fill="lightgrey" />
</g>

<g transform="rotate(14.835112, 395.000000, 357.971355)">
	<rect  x="245.000000" y="346.471355" width="150.000000" height="23.000000" style="fill:rgb(0,0,0);stroke-width:3;stroke:rgb(0,0,0)" />
	<circle cx="245.000000" cy="357.971355" r="11.000000" stroke="black" stroke-width="1" fill="lightgrey" />
</g>

<circle cx="395.000000" cy="357.971355" r="11.000000" stroke="black" stroke-width="1" fill="lightgrey" />
<circle cx="395.000000" cy="281.159897" r="11.000000" stroke="black" stroke-width="1" fill="lightgrey" />



<g transform="rotate(14.835112, 395.000000, 357.971355)">
	<rect  x="395.000000" y="346.471355" width="150.000000" height="23.000000" style="fill:rgb(0,0,0);stroke-width:3;stroke:rgb(0,0,0)" />
</g>

<g transform="rotate(-14.835112, 395.000000, 357.971355)">
	<rect  x="245.000000" y="346.471355" width="150.000000" height="23.000000" style="fill:rgb(0,0,0);stroke-width:3;stroke:rgb(0,0,0)" />
</g>

<g transform="rotate(-14.835112, 395.000000, 434.782813)">
	<rect  x="395.000000" y="423.282813" width="150.000000" height="23.000000" style="fill:rgb(0,0,0);stroke-width:3;stroke:rgb(0,0,0)" />
	<circle cx="545.000000" cy="434.782813" r="11.000000" stroke="black" stroke-width="1" fill="lightgrey" />
</g>

<g transform="rotate(14.835112, 395.000000, 434.782813)">
	<rect  x="245.000000" y="423.282813" width="150.000000" height="23.000000" style="fill:rgb(0,0,0);stroke-width:3;stroke:rgb(0,0,0)" />
	<circle cx="245.000000" cy="434.782813" r="11.000000" stroke="black" stroke-width="1" fill="lightgrey" />
</g>

<circle cx="395.000000" cy="434.782813" r="11.000000" stroke="black" stroke-width="1" fill="lightgrey" />
<circle cx="395.000000" cy="357.971355" r="11.000000" stroke="black" stroke-width="1" fill="lightgrey" />



<g transform="rotate(14.835112, 395.000000, 434.782813)">
	<rect  x="395.000000" y="423.282813" width="150.000000" height="23.000000" style="fill:rgb(0,0,0);stroke-width:3;stroke:rgb(0,0,0)" />
</g>

<g transform="rotate(-14.835112, 395.000000, 434.782813)">
	<rect  x="245.000000" y="423.282813" width="150.000000" height="23.000000" style="fill:rgb(0,0,0);stroke-width:3;stroke:rgb(0,0,0)" />
</g>

<g transform="rotate(-14.835112, 395.000000, 511.594271)">
	<rect  x="395.000000" y="500.094271" width="150.000000" height="23.000000" style="fill:rgb(0,0,0);stroke-width:3;stroke:rgb(0,0,0)" />
	<circle cx="545.000000" cy="511.594271" r="11.000000" stroke="black" stroke-width="1" fill="lightgrey" />
</g>

<g transform="rotate(14.835112, 395.000000, 511.594271)">
	<rect  x="245.000000" y="500.094271" width="150.000000" height="23.000000" style="fill:rgb(0,0,0);stroke-width:3;stroke:rgb(0,0,0)" />
	<circle cx="245.000000" cy="511.594271" r="11.000000" stroke="black" stroke-width="1" fill="lightgrey" />
</g>

<circle cx="395.000000" cy="511.594271" r="11.000000" stroke="black" stroke-width="1" fill="lightgrey" />
<circle cx="395.000000" cy="434.782813" r="11.000000" stroke="black" stroke-width="1" fill="lightgrey" />



<g transform="rotate(14.835112, 395.000000, 511.594271)">
	<rect  x="395.000000" y="500.094271" width="150.000000" height="23.000000" style="fill:rgb(0,0,0);stroke-width:3;stroke:rgb(0,0,0)" />
</g>

<g transform="rotate(-14.835112, 395.000000, 511.594271)">
	<rect  x="245.000000" y="500.094271" width="150.000000" height="23.000000" style="fill:rgb(0,0,0);stroke-width:3;stroke:rgb(0,0,0)" />
</g>

<g transform="rotate(-14.835112, 395.000000, 588.405729)">
	<circle cx="545.000000" cy="588.405729" r="11.000000" stroke="black" stroke-width="1" fill="lightgrey" />
</g>

<g transform="rotate(14.835112, 395.000000, 588.405729)">
	<circle cx="245.000000" cy="588.405729" r="11.000000" stroke="black" stroke-width="1" fill="lightgrey" />
</g>

<circle cx="395.000000" cy="511.594271" r="11.000000" stroke="black" stroke-width="1" fill="lightgrey" />


</svg>
