<?xml version="1.0" encoding="UTF-8" standalone="no"?>
<svg xmlns="http://www.w3.org/2000/svg" width="800" height="600">
	<rect  x = "-116.000000" y="-5.333333" width="232.000000" height="10.666667" style="fill:rgb(210,210,210);stroke-width:1;stroke:rgb(0,0,0)" transform="matrix(1.000000 0.000000 -0.000000 1.000000 416.000000 550.000000)"  /> 
	<rect  x = "-132.000000" y="-16.000000" width="32.000000" height="32.000000" style="fill:rgb(130,130,130);stroke-width:3;stroke:rgb(0,0,0)" transform="matrix(1.000000 0.000000 -0.000000 1.000000 416.000000 550.000000)"  /> 
	<rect  x = "100.000000" y="-16.000000" width="32.000000" height="32.000000" style="fill:rgb(130,130,130);stroke-width:3;stroke:rgb(0,0,0)" transform="matrix(1.000000 0.000000 -0.000000 1.000000 416.000000 550.000000)"  /> 
	<rect  x = "18.000000" y="-16.000000" width="32.000000" height="32.000000" style="fill:rgb(130,130,130);stroke-width:3;stroke:rgb(0,0,0)" transform="matrix(1.000000 0.000000 -0.000000 1.000000 416.000000 550.000000)"  /> 


<g transform="rotate(41.409622, 375.000000, 219.281086)">
</g>

<g transform="rotate(-41.409622, 375.000000, 219.281086)">
</g>

<g transform="rotate(-41.409622, 375.000000, 351.568652)">
	<rect  x="375.000000" y="340.068652" width="100.000000" height="23.000000" style="fill:rgb(0,0,0);stroke-width:3;stroke:rgb(0,0,0)" />
	<circle cx="475.000000" cy="351.568652" r="11.000000" stroke="black" stroke-width="1" fill="lightgrey" />
</g>

<g transform="rotate(41.409622, 375.000000, 351.568652)">
	<rect  x="275.000000" y="340.068652" width="100.000000" height="23.000000" style="fill:rgb(0,0,0);stroke-width:3;stroke:rgb(0,0,0)" />
	<circle cx="275.000000" cy="351.568652" r="11.000000" stroke="black" stroke-width="1" fill="lightgrey" />
</g>

<circle cx="375.000000" cy="351.568652" r="11.000000" stroke="black" stroke-width="1" fill="lightgrey" />


<g transform="rotate(41.409622, 375.000000, 351.568652)">
	<rect  x="375.000000" y="340.068652" width="100.000000" height="23.000000" style="fill:rgb(0,0,0);stroke-width:3;stroke:rgb(0,0,0)" />
</g>

<g transform="rotate(-41.409622, 375.000000, 351.568652)">
	<rect  x="275.000000" y="340.068652" width="100.000000" height="23.000000" style="fill:rgb(0,0,0);stroke-width:3;stroke:rgb(0,0,0)" />
</g>

<g transform="rotate(-41.409622, 375.000000, 483.856217)">
	<rect  x="375.000000" y="472.356217" width="100.000000" height="23.000000" style="fill:rgb(0,0,0);stroke-width:3;stroke:rgb(0,0,0)" />
	<circle cx="475.000000" cy="483.856217" r="11.000000" stroke="black" stroke-width="1" fill="lightgrey" />
</g>

<g transform="rotate(41.409622, 375.000000, 483.856217)">
	<rect  x="275.000000" y="472.356217" width="100.000000" height="23.000000" style="fill:rgb(0,0,0);stroke-width:3;stroke:rgb(0,0,0)" />
	<circle cx="275.000000" cy="483.856217" r="11.000000" stroke="black" stroke-width="1" fill="lightgrey" />
</g>

<circle cx="375.000000" cy="483.856217" r="11.000000" stroke="black" stroke-width="1" fill="lightgrey" />
<circle cx="375.000000" cy="351.568652" r="11.000000" stroke="black" stroke-width="1" fill="lightgrey" />



<g transform="rotate(41.409622, 375.000000, 483.856217)">
	<rect  x="375.000000" y="472.356217" width="100.000000" height="23.000000" style="fill:rgb(0,0,0);stroke-width:3;stroke:rgb(0,0,0)" />
</g>

<g transform="rotate(-41.409622, 375.000000, 483.856217)">
	<rect  x="275.000000" y="472.356217" width="100.000000" height="23.000000" style="fill:rgb(0,0,0);stroke-width:3;stroke:rgb(0,0,0)" />
</g>

<g transform="rotate(-41.409622, 375.000000, 616.143783)">
	<circle cx="475.000000" cy="616.143783" r="11.000000" stroke="black" stroke-width="1" fill="lightgrey" />
</g>

<g transform="rotate(41.409622, 375.000000, 616.143783)">
	<circle cx="275.000000" cy="616.143783" r="11.000000" stroke="black" stroke-width="1" fill="lightgrey" />
</g>

<circle cx="375.000000" cy="483.856217" r="11.000000" stroke="black" stroke-width="1" fill="lightgrey" />


	<rect  x = "-116.000000" y="-5.333333" width="232.000000" height="10.666667" style="fill:rgb(210,210,210);stroke-width:1;stroke:rgb(0,0,0)" transform="matrix(1.000000 0.000000 -0.000000 1.000000 416.000000 285.424866)"  /> 
	<rect  x = "-132.000000" y="-16.000000" width="32.000000" height="32.000000" style="fill:rgb(130,130,130);stroke-width:3;stroke:rgb(0,0,0)" transform="matrix(1.000000 0.000000 -0.000000 1.000000 416.000000 285.424866)"  /> 
	<rect  x = "100.000000" y="-16.000000" width="32.000000" height="32.000000" style="fill:rgb(130,130,130);stroke-width:3;stroke:rgb(0,0,0)" transform="matrix(1.000000 0.000000 -0.000000 1.000000 416.000000 285.424866)"  /> 
	<rect  x = "18.000000" y="-16.000000" width="32.000000" height="32.000000" style="fill:rgb(130,130,130);stroke-width:3;stroke:rgb(0,0,0)" transform="matrix(1.000000 0.000000 -0.000000 1.000000 416.000000 285.424866)"  /> 


<g transform="rotate(41.409622, 375.000000, -45.294045)">
</g>

<g transform="rotate(-41.409622, 375.000000, -45.294045)">
</g>

<g transform="rotate(-41.409622, 375.000000, 86.993521)">
	<rect  x="375.000000" y="75.493521" width="100.000000" height="23.000000" style="fill:rgb(0,0,0);stroke-width:3;stroke:rgb(0,0,0)" />
	<circle cx="475.000000" cy="86.993521" r="11.000000" stroke="black" stroke-width="1" fill="lightgrey" />
</g>

<g transform="rotate(41.409622, 375.000000, 86.993521)">
	<rect  x="275.000000" y="75.493521" width="100.000000" height="23.000000" style="fill:rgb(0,0,0);stroke-width:3;stroke:rgb(0,0,0)" />
	<circle cx="275.000000" cy="86.993521" r="11.000000" stroke="black" stroke-width="1" fill="lightgrey" />
</g>

<circle cx="375.000000" cy="86.993521" r="11.000000" stroke="black" stroke-width="1" fill="lightgrey" />


<g transform="rotate(41.409622, 375.000000, 86.993521)">
	<rect  x="375.000000" y="75.493521" width="100.000000" height="23.000000" style="fill:rgb(0,0,0);stroke-width:3;stroke:rgb(0,0,0)" />
</g>

<g transform="rotate(-41.409622, 375.000000, 86.993521)">
	<rect  x="275.000000" y="75.493521" width="100.000000" height="23.000000" style="fill:rgb(0,0,0);stroke-width:3;stroke:rgb(0,0,0)" />
</g>

<g transform="rotate(-41.409622, 375.000000, 219.281086)">
	<rect  x="375.000000" y="207.781086" width="100.000000" height="23.000000" style="fill:rgb(0,0,0);stroke-width:3;stroke:rgb(0,0,0)" />
	<circle cx="475.000000" cy="219.281086" r="11.000000" stroke="black" stroke-width="1" fill="lightgrey" />
</g>

<g transform="rotate(41.409622, 375.000000, 219.281086)">
	<rect  x="275.000000" y="207.781086" width="100.000000" height="23.000000" style="fill:rgb(0,0,0);stroke-width:3;stroke:rgb(0,0,0)" />
	<circle cx="275.000000" cy="219.281086" r="11.000000" stroke="black" stroke-width="1" fill="lightgrey" />
</g>

<circle cx="375.000000" cy="219.281086" r="11.000000" stroke="black" stroke-width="1" fill="lightgrey" />
<circle cx="375.000000" cy="86.993521" r="11.000000" stroke="black" stroke-width="1" fill="lightgrey" />



<g transform="rotate(41.409622, 375.000000, 219.281086)">
	<rect  x="375.000000" y="207.781086" width="100.000000" height="23.000000" style="fill:rgb(0,0,0);stroke-width:3;stroke:rgb(0,0,0)" />
</g>

<g transform="rotate(-41.409622, 375.000000, 219.281086)">
	<rect  x="275.000000" y="207.781086" width="100.000000" height="23.000000" style="fill:rgb(0,0,0);stroke-width:3;stroke:rgb(0,0,0)" />
</g>

<g transform="rotate(-41.409622, 375.000000, 351.568652)">
	<circle cx="475.000000" cy="351.568652" r="11.000000" stroke="black" stroke-width="1" fill="lightgrey" />
</g>

<g transform="rotate(41.409622, 375.000000, 351.568652)">
	<circle cx="275.000000" cy="351.568652" r="11.000000" stroke="black" stroke-width="1" fill="lightgrey" />
</g>

<circle cx="375.000000" cy="219.281086" r="11.000000" stroke="black" stroke-width="1" fill="lightgrey" />


</svg>
