<?xml version="1.0" encoding="UTF-8" standalone="no"?>

<svg xmlns="http://www.w3.org/2000/svg" width="800" height="600">
  
<g transform="rotate(22.024313, 133.000000, 330.000000)">
	<rect  x="133.000000" y="324.500000" width="80.000000" height="11.000000" style="fill:rgb(0,0,0);stroke-width:3;stroke:rgb(0,0,0)" />
</g>

<g transform="rotate(-22.024313, 133.000000, 330.000000)">
	<rect  x="53.000000" y="324.500000" width="80.000000" height="11.000000" style="fill:rgb(0,0,0);stroke-width:3;stroke:rgb(0,0,0)" />
</g>

<g transform="rotate(-22.024313, 133.000000, 390.000000)">
	<rect  x="133.000000" y="384.500000" width="80.000000" height="11.000000" style="fill:rgb(0,0,0);stroke-width:3;stroke:rgb(0,0,0)" />
	<circle cx="213.000000" cy="390.000000" r="5.000000" stroke="black" stroke-width="1" fill="lightgrey" />
</g>

<g transform="rotate(22.024313, 133.000000, 390.000000)">
	<rect  x="53.000000" y="384.500000" width="80.000000" height="11.000000" style="fill:rgb(0,0,0);stroke-width:3;stroke:rgb(0,0,0)" />
	<circle cx="53.000000" cy="390.000000" r="5.000000" stroke="black" stroke-width="1" fill="lightgrey" />
</g>

<circle cx="133.000000" cy="390.000000" r="5.000000" stroke="black" stroke-width="1" fill="lightgrey" />
<circle cx="133.000000" cy="330.000000" r="5.000000" stroke="black" stroke-width="1" fill="lightgrey" />



<g transform="rotate(22.024313, 133.000000, 390.000000)">
	<rect  x="133.000000" y="384.500000" width="80.000000" height="11.000000" style="fill:rgb(0,0,0);stroke-width:3;stroke:rgb(0,0,0)" />
</g>

<g transform="rotate(-22.024313, 133.000000, 390.000000)">
	<rect  x="53.000000" y="384.500000" width="80.000000" height="11.000000" style="fill:rgb(0,0,0);stroke-width:3;stroke:rgb(0,0,0)" />
</g>

<g transform="rotate(-22.024313, 133.000000, 450.000000)">
	<rect  x="133.000000" y="444.500000" width="80.000000" height="11.000000" style="fill:rgb(0,0,0);stroke-width:3;stroke:rgb(0,0,0)" />
	<circle cx="213.000000" cy="450.000000" r="5.000000" stroke="black" stroke-width="1" fill="lightgrey" />
</g>

<g transform="rotate(22.024313, 133.000000, 450.000000)">
	<rect  x="53.000000" y="444.500000" width="80.000000" height="11.000000" style="fill:rgb(0,0,0);stroke-width:3;stroke:rgb(0,0,0)" />
	<circle cx="53.000000" cy="450.000000" r="5.000000" stroke="black" stroke-width="1" fill="lightgrey" />
</g>

<circle cx="133.000000" cy="450.000000" r="5.000000" stroke="black" stroke-width="1" fill="lightgrey" />
<circle cx="133.000000" cy="390.000000" r="5.000000" stroke="black" stroke-width="1" fill="lightgrey" />



<g transform="rotate(22.024313, 133.000000, 450.000000)">
	<rect  x="133.000000" y="444.500000" width="80.000000" height="11.000000" style="fill:rgb(0,0,0);stroke-width:3;stroke:rgb(0,0,0)" />
</g>

<g transform="rotate(-22.024313, 133.000000, 450.000000)">
	<rect  x="53.000000" y="444.500000" width="80.000000" height="11.000000" style="fill:rgb(0,0,0);stroke-width:3;stroke:rgb(0,0,0)" />
</g>

<g transform="rotate(-22.024313, 133.000000, 510.000000)">
	<rect  x="133.000000" y="504.500000" width="80.000000" height="11.000000" style="fill:rgb(0,0,0);stroke-width:3;stroke:rgb(0,0,0)" />
	<circle cx="213.000000" cy="510.000000" r="5.000000" stroke="black" stroke-width="1" fill="lightgrey" />
</g>

<g transform="rotate(22.024313, 133.000000, 510.000000)">
	<rect  x="53.000000" y="504.500000" width="80.000000" height="11.000000" style="fill:rgb(0,0,0);stroke-width:3;stroke:rgb(0,0,0)" />
	<circle cx="53.000000" cy="510.000000" r="5.000000" stroke="black" stroke-width="1" fill="lightgrey" />
</g>

<circle cx="133.000000" cy="510.000000" r="5.000000" stroke="black" stroke-width="1" fill="lightgrey" />
<circle cx="133.000000" cy="450.000000" r="5.000000" stroke="black" stroke-width="1" fill="lightgrey" />



<g transform="rotate(22.024313, 133.000000, 510.000000)">
	<rect  x="133.000000" y="504.500000" width="80.000000" height="11.000000" style="fill:rgb(0,0,0);stroke-width:3;stroke:rgb(0,0,0)" />
</g>

<g transform="rotate(-22.024313, 133.000000, 510.000000)">
	<rect  x="53.000000" y="504.500000" width="80.000000" height="11.000000" style="fill:rgb(0,0,0);stroke-width:3;stroke:rgb(0,0,0)" />
</g>

<g transform="rotate(-22.024313, 133.000000, 570.000000)">
	<rect  x="133.000000" y="564.500000" width="80.000000" height="11.000000" style="fill:rgb(0,0,0);stroke-width:3;stroke:rgb(0,0,0)" />
	<circle cx="213.000000" cy="570.000000" r="5.000000" stroke="black" stroke-width="1" fill="lightgrey" />
</g>

<g transform="rotate(22.024313, 133.000000, 570.000000)">
	<rect  x="53.000000" y="564.500000" width="80.000000" height="11.000000" style="fill:rgb(0,0,0);stroke-width:3;stroke:rgb(0,0,0)" />
	<circle cx="53.000000" cy="570.000000" r="5.000000" stroke="black" stroke-width="1" fill="lightgrey" />
</g>

<circle cx="133.000000" cy="570.000000" r="5.000000" stroke="black" stroke-width="1" fill="lightgrey" />
<circle cx="133.000000" cy="510.000000" r="5.000000" stroke="black" stroke-width="1" fill="lightgrey" />



<g transform="rotate(22.024313, 133.000000, 570.000000)">
	<rect  x="133.000000" y="564.500000" width="80.000000" height="11.000000" style="fill:rgb(0,0,0);stroke-width:3;stroke:rgb(0,0,0)" />
</g>

<g transform="rotate(-22.024313, 133.000000, 570.000000)">
	<rect  x="53.000000" y="564.500000" width="80.000000" height="11.000000" style="fill:rgb(0,0,0);stroke-width:3;stroke:rgb(0,0,0)" />
</g>

<g transform="rotate(-22.024313, 133.000000, 630.000000)">
	<rect  x="133.000000" y="624.500000" width="80.000000" height="11.000000" style="fill:rgb(0,0,0);stroke-width:3;stroke:rgb(0,0,0)" />
	<circle cx="213.000000" cy="630.000000" r="5.000000" stroke="black" stroke-width="1" fill="lightgrey" />
</g>

<g transform="rotate(22.024313, 133.000000, 630.000000)">
	<rect  x="53.000000" y="624.500000" width="80.000000" height="11.000000" style="fill:rgb(0,0,0);stroke-width:3;stroke:rgb(0,0,0)" />
	<circle cx="53.000000" cy="630.000000" r="5.000000" stroke="black" stroke-width="1" fill="lightgrey" />
</g>

<circle cx="133.000000" cy="630.000000" r="5.000000" stroke="black" stroke-width="1" fill="lightgrey" />
<circle cx="133.000000" cy="570.000000" r="5.000000" stroke="black" stroke-width="1" fill="lightgrey" />

<g transform="rotate(54.340912, 400.000000, 15.000000)">
	<rect  x="400.000000" y="9.500000" width="80.000000" height="11.000000" style="fill:rgb(0,0,0);stroke-width:3;stroke:rgb(0,0,0)" />
</g>

<g transform="rotate(-54.340912, 400.000000, 15.000000)">
	<rect  x="320.000000" y="9.500000" width="80.000000" height="11.000000" style="fill:rgb(0,0,0);stroke-width:3;stroke:rgb(0,0,0)" />
</g>

<g transform="rotate(-54.340912, 400.000000, 145.000000)">
	<rect  x="400.000000" y="139.500000" width="80.000000" height="11.000000" style="fill:rgb(0,0,0);stroke-width:3;stroke:rgb(0,0,0)" />
	<circle cx="480.000000" cy="145.000000" r="5.000000" stroke="black" stroke-width="1" fill="lightgrey" />
</g>

<g transform="rotate(54.340912, 400.000000, 145.000000)">
	<rect  x="320.000000" y="139.500000" width="80.000000" height="11.000000" style="fill:rgb(0,0,0);stroke-width:3;stroke:rgb(0,0,0)" />
	<circle cx="320.000000" cy="145.000000" r="5.000000" stroke="black" stroke-width="1" fill="lightgrey" />
</g>

<circle cx="400.000000" cy="145.000000" r="5.000000" stroke="black" stroke-width="1" fill="lightgrey" />
<circle cx="400.000000" cy="15.000000" r="5.000000" stroke="black" stroke-width="1" fill="lightgrey" />



<g transform="rotate(54.340912, 400.000000, 145.000000)">
	<rect  x="400.000000" y="139.500000" width="80.000000" height="11.000000" style="fill:rgb(0,0,0);stroke-width:3;stroke:rgb(0,0,0)" />
</g>

<g transform="rotate(-54.340912, 400.000000, 145.000000)">
	<rect  x="320.000000" y="139.500000" width="80.000000" height="11.000000" style="fill:rgb(0,0,0);stroke-width:3;stroke:rgb(0,0,0)" />
</g>

<g transform="rotate(-54.340912, 400.000000, 275.000000)">
	<rect  x="400.000000" y="269.500000" width="80.000000" height="11.000000" style="fill:rgb(0,0,0);stroke-width:3;stroke:rgb(0,0,0)" />
	<circle cx="480.000000" cy="275.000000" r="5.000000" stroke="black" stroke-width="1" fill="lightgrey" />
</g>

<g transform="rotate(54.340912, 400.000000, 275.000000)">
	<rect  x="320.000000" y="269.500000" width="80.000000" height="11.000000" style="fill:rgb(0,0,0);stroke-width:3;stroke:rgb(0,0,0)" />
	<circle cx="320.000000" cy="275.000000" r="5.000000" stroke="black" stroke-width="1" fill="lightgrey" />
</g>

<circle cx="400.000000" cy="275.000000" r="5.000000" stroke="black" stroke-width="1" fill="lightgrey" />
<circle cx="400.000000" cy="145.000000" r="5.000000" stroke="black" stroke-width="1" fill="lightgrey" />



<g transform="rotate(54.340912, 400.000000, 275.000000)">
	<rect  x="400.000000" y="269.500000" width="80.000000" height="11.000000" style="fill:rgb(0,0,0);stroke-width:3;stroke:rgb(0,0,0)" />
</g>

<g transform="rotate(-54.340912, 400.000000, 275.000000)">
	<rect  x="320.000000" y="269.500000" width="80.000000" height="11.000000" style="fill:rgb(0,0,0);stroke-width:3;stroke:rgb(0,0,0)" />
</g>

<g transform="rotate(-54.340912, 400.000000, 405.000000)">
	<rect  x="400.000000" y="399.500000" width="80.000000" height="11.000000" style="fill:rgb(0,0,0);stroke-width:3;stroke:rgb(0,0,0)" />
	<circle cx="480.000000" cy="405.000000" r="5.000000" stroke="black" stroke-width="1" fill="lightgrey" />
</g>

<g transform="rotate(54.340912, 400.000000, 405.000000)">
	<rect  x="320.000000" y="399.500000" width="80.000000" height="11.000000" style="fill:rgb(0,0,0);stroke-width:3;stroke:rgb(0,0,0)" />
	<circle cx="320.000000" cy="405.000000" r="5.000000" stroke="black" stroke-width="1" fill="lightgrey" />
</g>

<circle cx="400.000000" cy="405.000000" r="5.000000" stroke="black" stroke-width="1" fill="lightgrey" />
<circle cx="400.000000" cy="275.000000" r="5.000000" stroke="black" stroke-width="1" fill="lightgrey" />



<g transform="rotate(54.340912, 400.000000, 405.000000)">
	<rect  x="400.000000" y="399.500000" width="80.000000" height="11.000000" style="fill:rgb(0,0,0);stroke-width:3;stroke:rgb(0,0,0)" />
</g>

<g transform="rotate(-54.340912, 400.000000, 405.000000)">
	<rect  x="320.000000" y="399.500000" width="80.000000" height="11.000000" style="fill:rgb(0,0,0);stroke-width:3;stroke:rgb(0,0,0)" />
</g>

<g transform="rotate(-54.340912, 400.000000, 535.000000)">
	<rect  x="400.000000" y="529.500000" width="80.000000" height="11.000000" style="fill:rgb(0,0,0);stroke-width:3;stroke:rgb(0,0,0)" />
	<circle cx="480.000000" cy="535.000000" r="5.000000" stroke="black" stroke-width="1" fill="lightgrey" />
</g>

<g transform="rotate(54.340912, 400.000000, 535.000000)">
	<rect  x="320.000000" y="529.500000" width="80.000000" height="11.000000" style="fill:rgb(0,0,0);stroke-width:3;stroke:rgb(0,0,0)" />
	<circle cx="320.000000" cy="535.000000" r="5.000000" stroke="black" stroke-width="1" fill="lightgrey" />
</g>

<circle cx="400.000000" cy="535.000000" r="5.000000" stroke="black" stroke-width="1" fill="lightgrey" />
<circle cx="400.000000" cy="405.000000" r="5.000000" stroke="black" stroke-width="1" fill="lightgrey" />



<g transform="rotate(54.340912, 400.000000, 535.000000)">
	<rect  x="400.000000" y="529.500000" width="80.000000" height="11.000000" style="fill:rgb(0,0,0);stroke-width:3;stroke:rgb(0,0,0)" />
</g>

<g transform="rotate(-54.340912, 400.000000, 535.000000)">
	<rect  x="320.000000" y="529.500000" width="80.000000" height="11.000000" style="fill:rgb(0,0,0);stroke-width:3;stroke:rgb(0,0,0)" />
</g>

<g transform="rotate(-54.340912, 400.000000, 665.000000)">
	<rect  x="400.000000" y="659.500000" width="80.000000" height="11.000000" style="fill:rgb(0,0,0);stroke-width:3;stroke:rgb(0,0,0)" />
	<circle cx="480.000000" cy="665.000000" r="5.000000" stroke="black" stroke-width="1" fill="lightgrey" />
</g>

<g transform="rotate(54.340912, 400.000000, 665.000000)">
	<rect  x="320.000000" y="659.500000" width="80.000000" height="11.000000" style="fill:rgb(0,0,0);stroke-width:3;stroke:rgb(0,0,0)" />
	<circle cx="320.000000" cy="665.000000" r="5.000000" stroke="black" stroke-width="1" fill="lightgrey" />
</g>

<circle cx="400.000000" cy="665.000000" r="5.000000" stroke="black" stroke-width="1" fill="lightgrey" />
<circle cx="400.000000" cy="535.000000" r="5.000000" stroke="black" stroke-width="1" fill="lightgrey" />

<g transform="rotate(10.806923, 666.000000, 465.000000)">
	<rect  x="666.000000" y="459.500000" width="80.000000" height="11.000000" style="fill:rgb(0,0,0);stroke-width:3;stroke:rgb(0,0,0)" />
</g>

<g transform="rotate(-10.806923, 666.000000, 465.000000)">
	<rect  x="586.000000" y="459.500000" width="80.000000" height="11.000000" style="fill:rgb(0,0,0);stroke-width:3;stroke:rgb(0,0,0)" />
</g>

<g transform="rotate(-10.806923, 666.000000, 495.000000)">
	<rect  x="666.000000" y="489.500000" width="80.000000" height="11.000000" style="fill:rgb(0,0,0);stroke-width:3;stroke:rgb(0,0,0)" />
	<circle cx="746.000000" cy="495.000000" r="5.000000" stroke="black" stroke-width="1" fill="lightgrey" />
</g>

<g transform="rotate(10.806923, 666.000000, 495.000000)">
	<rect  x="586.000000" y="489.500000" width="80.000000" height="11.000000" style="fill:rgb(0,0,0);stroke-width:3;stroke:rgb(0,0,0)" />
	<circle cx="586.000000" cy="495.000000" r="5.000000" stroke="black" stroke-width="1" fill="lightgrey" />
</g>

<circle cx="666.000000" cy="495.000000" r="5.000000" stroke="black" stroke-width="1" fill="lightgrey" />
<circle cx="666.000000" cy="465.000000" r="5.000000" stroke="black" stroke-width="1" fill="lightgrey" />



<g transform="rotate(10.806923, 666.000000, 495.000000)">
	<rect  x="666.000000" y="489.500000" width="80.000000" height="11.000000" style="fill:rgb(0,0,0);stroke-width:3;stroke:rgb(0,0,0)" />
</g>

<g transform="rotate(-10.806923, 666.000000, 495.000000)">
	<rect  x="586.000000" y="489.500000" width="80.000000" height="11.000000" style="fill:rgb(0,0,0);stroke-width:3;stroke:rgb(0,0,0)" />
</g>

<g transform="rotate(-10.806923, 666.000000, 525.000000)">
	<rect  x="666.000000" y="519.500000" width="80.000000" height="11.000000" style="fill:rgb(0,0,0);stroke-width:3;stroke:rgb(0,0,0)" />
	<circle cx="746.000000" cy="525.000000" r="5.000000" stroke="black" stroke-width="1" fill="lightgrey" />
</g>

<g transform="rotate(10.806923, 666.000000, 525.000000)">
	<rect  x="586.000000" y="519.500000" width="80.000000" height="11.000000" style="fill:rgb(0,0,0);stroke-width:3;stroke:rgb(0,0,0)" />
	<circle cx="586.000000" cy="525.000000" r="5.000000" stroke="black" stroke-width="1" fill="lightgrey" />
</g>

<circle cx="666.000000" cy="525.000000" r="5.000000" stroke="black" stroke-width="1" fill="lightgrey" />
<circle cx="666.000000" cy="495.000000" r="5.000000" stroke="black" stroke-width="1" fill="lightgrey" />



<g transform="rotate(10.806923, 666.000000, 525.000000)">
	<rect  x="666.000000" y="519.500000" width="80.000000" height="11.000000" style="fill:rgb(0,0,0);stroke-width:3;stroke:rgb(0,0,0)" />
</g>

<g transform="rotate(-10.806923, 666.000000, 525.000000)">
	<rect  x="586.000000" y="519.500000" width="80.000000" height="11.000000" style="fill:rgb(0,0,0);stroke-width:3;stroke:rgb(0,0,0)" />
</g>

<g transform="rotate(-10.806923, 666.000000, 555.000000)">
	<rect  x="666.000000" y="549.500000" width="80.000000" height="11.000000" style="fill:rgb(0,0,0);stroke-width:3;stroke:rgb(0,0,0)" />
	<circle cx="746.000000" cy="555.000000" r="5.000000" stroke="black" stroke-width="1" fill="lightgrey" />
</g>

<g transform="rotate(10.806923, 666.000000, 555.000000)">
	<rect  x="586.000000" y="549.500000" width="80.000000" height="11.000000" style="fill:rgb(0,0,0);stroke-width:3;stroke:rgb(0,0,0)" />
	<circle cx="586.000000" cy="555.000000" r="5.000000" stroke="black" stroke-width="1" fill="lightgrey" />
</g>

<circle cx="666.000000" cy="555.000000" r="5.000000" stroke="black" stroke-width="1" fill="lightgrey" />
<circle cx="666.000000" cy="525.000000" r="5.000000" stroke="black" stroke-width="1" fill="lightgrey" />



<g transform="rotate(10.806923, 666.000000, 555.000000)">
	<rect  x="666.000000" y="549.500000" width="80.000000" height="11.000000" style="fill:rgb(0,0,0);stroke-width:3;stroke:rgb(0,0,0)" />
</g>

<g transform="rotate(-10.806923, 666.000000, 555.000000)">
	<rect  x="586.000000" y="549.500000" width="80.000000" height="11.000000" style="fill:rgb(0,0,0);stroke-width:3;stroke:rgb(0,0,0)" />
</g>

<g transform="rotate(-10.806923, 666.000000, 585.000000)">
	<rect  x="666.000000" y="579.500000" width="80.000000" height="11.000000" style="fill:rgb(0,0,0);stroke-width:3;stroke:rgb(0,0,0)" />
	<circle cx="746.000000" cy="585.000000" r="5.000000" stroke="black" stroke-width="1" fill="lightgrey" />
</g>

<g transform="rotate(10.806923, 666.000000, 585.000000)">
	<rect  x="586.000000" y="579.500000" width="80.000000" height="11.000000" style="fill:rgb(0,0,0);stroke-width:3;stroke:rgb(0,0,0)" />
	<circle cx="586.000000" cy="585.000000" r="5.000000" stroke="black" stroke-width="1" fill="lightgrey" />
</g>

<circle cx="666.000000" cy="585.000000" r="5.000000" stroke="black" stroke-width="1" fill="lightgrey" />
<circle cx="666.000000" cy="555.000000" r="5.000000" stroke="black" stroke-width="1" fill="lightgrey" />



<g transform="rotate(10.806923, 666.000000, 585.000000)">
	<rect  x="666.000000" y="579.500000" width="80.000000" height="11.000000" style="fill:rgb(0,0,0);stroke-width:3;stroke:rgb(0,0,0)" />
</g>

<g transform="rotate(-10.806923, 666.000000, 585.000000)">
	<rect  x="586.000000" y="579.500000" width="80.000000" height="11.000000" style="fill:rgb(0,0,0);stroke-width:3;stroke:rgb(0,0,0)" />
</g>

<g transform="rotate(-10.806923, 666.000000, 615.000000)">
	<rect  x="666.000000" y="609.500000" width="80.000000" height="11.000000" style="fill:rgb(0,0,0);stroke-width:3;stroke:rgb(0,0,0)" />
	<circle cx="746.000000" cy="615.000000" r="5.000000" stroke="black" stroke-width="1" fill="lightgrey" />
</g>

<g transform="rotate(10.806923, 666.000000, 615.000000)">
	<rect  x="586.000000" y="609.500000" width="80.000000" height="11.000000" style="fill:rgb(0,0,0);stroke-width:3;stroke:rgb(0,0,0)" />
	<circle cx="586.000000" cy="615.000000" r="5.000000" stroke="black" stroke-width="1" fill="lightgrey" />
</g>

<circle cx="666.000000" cy="615.000000" r="5.000000" stroke="black" stroke-width="1" fill="lightgrey" />
<circle cx="666.000000" cy="585.000000" r="5.000000" stroke="black" stroke-width="1" fill="lightgrey" />

  
</svg>



