<?xml version="1.0" encoding="UTF-8" standalone="no"?>

<svg xmlns="http://www.w3.org/2000/svg" width="800" height="600">
  
<g transform="rotate(30,400,210)">
    <rect  x="400" y="200" width="200" height="20" style="fill:rgb(0,0,0);stroke-width:3;stroke:rgb(0,0,0)" />  
    <rect  x="400" y="180" width="200" height="0.8" style="fill:rgb(0,0,0);" /> 
    <rect  x="630" y="200" width="0.8" height="20" style="fill:rgb(0,0,0);" />  
    <text x="500" y="175" fill="black">200</text>
    <text x="640" y="210" fill="black">20</text>
</g>

<g transform="rotate(-30,400,210)">
  <rect  x="200" y="200" width="200" height="20" style="fill:rgb(0,0,0);stroke-width:3;stroke:rgb(0,0,0)" />  
</g>

<g transform="rotate(-30,400,410)">  
  <rect  x="400" y="400" width="200" height="20" style="fill:rgb(0,0,0);stroke-width:3;stroke:rgb(0,0,0)" />  
  <circle cx="600" cy="410" r="12" stroke="black" stroke-width="2" fill="lightgrey" /> 
</g>

<g transform="rotate(30,400,410)"> 
  <rect  x="200" y="400" width="200" height="20" style="fill:rgb(0,0,0);stroke-width:3;stroke:rgb(0,0,0)" />  
  <circle cx="200" cy="410" r="12" stroke="black" stroke-width="2" fill="lightgrey" /> 
</g>

<circle cx="400" cy="410" r="12" stroke="black" stroke-width="2" fill="lightgrey" /> 
<circle cx="400" cy="210" r="12" stroke="black" stroke-width="2" fill="lightgrey" /> 

<rect  x="200" y="210" width="0.8" height="200" style="fill:rgb(0,0,0);" />  
<rect  x="190" y="210" width="200" height="0.8" style="fill:rgb(0,0,0);" />  
<rect  x="190" y="410" width="200" height="0.8" style="fill:rgb(0,0,0);" />  
<text x="160" y="310" fill="black">200</text>


<!--    
<rect  x="0" y="0" width="800" height="0.8" style="fill:rgb(0,0,0);" />  
<rect  x="0" y="0" width="0.8" height="600" style="fill:rgb(0,0,0);" />  

<rect  x="0" y="595" width="800" height="0.8" style="fill:rgb(0,0,0);" />  
<rect  x="795" y="0" width="0.8" height="600" style="fill:rgb(0,0,0);" />
-->
  
</svg>



